<svg xmlns="http://www.w3.org/2000/svg" version="1.1" xmlns:xlink="http://www.w3.org/1999/xlink" xmlns:svgjs="http://svgjs.dev/svgjs" width="1440" height="560" preserveAspectRatio="none" viewBox="0 0 1440 560"><g mask="url(&quot;#SvgjsMask2475&quot;)" fill="none"><rect width="1440" height="560" x="0" y="0" fill="#0e2a47"></rect><path d="M-52.85 379.87L-52.85 379.87" stroke="rgba(2, 18, 43, 1)" stroke-width="1.5"></path><path d="M-52.85 379.87L62.89 347.53" stroke="rgba(2, 18, 43, 1)" stroke-width="1.5"></path><path d="M-52.85 379.87L-51.59 562.18" stroke="rgba(2, 18, 43, 1)" stroke-width="1.5"></path><path d="M-52.85 379.87L85.21 503.83" stroke="rgba(2, 18, 43, 1)" stroke-width="1.5"></path><path d="M-52.85 379.87L239.64 377.59" stroke="rgba(2, 18, 43, 1)" stroke-width="1.5"></path><path d="M-51.59 562.18L-51.59 562.18" stroke="rgba(2, 18, 43, 1)" stroke-width="1.5"></path><path d="M-51.59 562.18L85.21 503.83" stroke="rgba(2, 18, 43, 1)" stroke-width="1.5"></path><path d="M-51.59 562.18L107.55 644.49" stroke="rgba(2, 18, 43, 1)" stroke-width="1.5"></path><path d="M-51.59 562.18L62.89 347.53" stroke="rgba(2, 18, 43, 1)" stroke-width="1.5"></path><path d="M62.89 347.53L62.89 347.53" stroke="rgba(2, 18, 43, 1)" stroke-width="1.5"></path><path d="M62.89 347.53L85.21 503.83" stroke="rgba(2, 18, 43, 1)" stroke-width="1.5"></path><path d="M62.89 347.53L239.64 377.59" stroke="rgba(2, 18, 43, 1)" stroke-width="1.5"></path><path d="M62.89 347.53L254.15 550.08" stroke="rgba(2, 18, 43, 1)" stroke-width="1.5"></path><path d="M62.89 347.53L341.29 393.74" stroke="rgba(2, 18, 43, 1)" stroke-width="1.5"></path><path d="M85.21 503.83L85.21 503.83" stroke="rgba(2, 18, 43, 1)" stroke-width="1.5"></path><path d="M85.21 503.83L107.55 644.49" stroke="rgba(2, 18, 43, 1)" stroke-width="1.5"></path><path d="M85.21 503.83L254.15 550.08" stroke="rgba(2, 18, 43, 1)" stroke-width="1.5"></path><path d="M85.21 503.83L239.64 377.59" stroke="rgba(2, 18, 43, 1)" stroke-width="1.5"></path><path d="M107.55 644.49L107.55 644.49" stroke="rgba(2, 18, 43, 1)" stroke-width="1.5"></path><path d="M107.55 644.49L254.15 550.08" stroke="rgba(2, 18, 43, 1)" stroke-width="1.5"></path><path d="M239.64 377.59L239.64 377.59" stroke="rgba(2, 18, 43, 1)" stroke-width="1.5"></path><path d="M239.64 377.59L341.29 393.74" stroke="rgba(2, 18, 43, 1)" stroke-width="1.5"></path><path d="M239.64 377.59L254.15 550.08" stroke="rgba(2, 18, 43, 1)" stroke-width="1.5"></path><path d="M239.64 377.59L410.92 492.47" stroke="rgba(2, 18, 43, 1)" stroke-width="1.5"></path><path d="M254.15 550.08L254.15 550.08" stroke="rgba(2, 18, 43, 1)" stroke-width="1.5"></path><path d="M254.15 550.08L367.77 662.19" stroke="rgba(2, 18, 43, 1)" stroke-width="1.5"></path><path d="M254.15 550.08L410.92 492.47" stroke="rgba(2, 18, 43, 1)" stroke-width="1.5"></path><path d="M341.29 393.74L341.29 393.74" stroke="rgba(2, 18, 43, 1)" stroke-width="1.5"></path><path d="M341.29 393.74L410.92 492.47" stroke="rgba(2, 18, 43, 1)" stroke-width="1.5"></path><path d="M341.29 393.74L254.15 550.08" stroke="rgba(2, 18, 43, 1)" stroke-width="1.5"></path><path d="M341.29 393.74L537.63 411.35" stroke="rgba(2, 18, 43, 1)" stroke-width="1.5"></path><path d="M341.29 393.74L525.74 519.05" stroke="rgba(2, 18, 43, 1)" stroke-width="1.5"></path><path d="M410.92 492.47L410.92 492.47" stroke="rgba(2, 18, 43, 1)" stroke-width="1.5"></path><path d="M410.92 492.47L525.74 519.05" stroke="rgba(2, 18, 43, 1)" stroke-width="1.5"></path><path d="M367.77 662.19L367.77 662.19" stroke="rgba(2, 18, 43, 1)" stroke-width="1.5"></path><path d="M367.77 662.19L410.92 492.47" stroke="rgba(2, 18, 43, 1)" stroke-width="1.5"></path><path d="M537.63 411.35L537.63 411.35" stroke="rgba(2, 18, 43, 1)" stroke-width="1.5"></path><path d="M537.63 411.35L525.74 519.05" stroke="rgba(2, 18, 43, 1)" stroke-width="1.5"></path><path d="M537.63 411.35L410.92 492.47" stroke="rgba(2, 18, 43, 1)" stroke-width="1.5"></path><path d="M537.63 411.35L699.04 398.98" stroke="rgba(2, 18, 43, 1)" stroke-width="1.5"></path><path d="M537.63 411.35L690.21 553.8" stroke="rgba(2, 18, 43, 1)" stroke-width="1.5"></path><path d="M525.74 519.05L525.74 519.05" stroke="rgba(2, 18, 43, 1)" stroke-width="1.5"></path><path d="M551.52 685.56L551.52 685.56" stroke="rgba(2, 18, 43, 1)" stroke-width="1.5"></path><path d="M551.52 685.56L704.46 688.96" stroke="rgba(2, 18, 43, 1)" stroke-width="1.5"></path><path d="M551.52 685.56L525.74 519.05" stroke="rgba(2, 18, 43, 1)" stroke-width="1.5"></path><path d="M551.52 685.56L367.77 662.19" stroke="rgba(2, 18, 43, 1)" stroke-width="1.5"></path><path d="M551.52 685.56L690.21 553.8" stroke="rgba(2, 18, 43, 1)" stroke-width="1.5"></path><path d="M699.04 398.98L699.04 398.98" stroke="rgba(2, 18, 43, 1)" stroke-width="1.5"></path><path d="M699.04 398.98L803.28 372.62" stroke="rgba(2, 18, 43, 1)" stroke-width="1.5"></path><path d="M699.04 398.98L690.21 553.8" stroke="rgba(2, 18, 43, 1)" stroke-width="1.5"></path><path d="M699.04 398.98L832.6 549.94" stroke="rgba(2, 18, 43, 1)" stroke-width="1.5"></path><path d="M699.04 398.98L525.74 519.05" stroke="rgba(2, 18, 43, 1)" stroke-width="1.5"></path><path d="M690.21 553.8L690.21 553.8" stroke="rgba(2, 18, 43, 1)" stroke-width="1.5"></path><path d="M690.21 553.8L704.46 688.96" stroke="rgba(2, 18, 43, 1)" stroke-width="1.5"></path><path d="M690.21 553.8L832.6 549.94" stroke="rgba(2, 18, 43, 1)" stroke-width="1.5"></path><path d="M690.21 553.8L525.74 519.05" stroke="rgba(2, 18, 43, 1)" stroke-width="1.5"></path><path d="M690.21 553.8L789.2 708.49" stroke="rgba(2, 18, 43, 1)" stroke-width="1.5"></path><path d="M704.46 688.96L704.46 688.96" stroke="rgba(2, 18, 43, 1)" stroke-width="1.5"></path><path d="M704.46 688.96L789.2 708.49" stroke="rgba(2, 18, 43, 1)" stroke-width="1.5"></path><path d="M704.46 688.96L832.6 549.94" stroke="rgba(2, 18, 43, 1)" stroke-width="1.5"></path><path d="M704.46 688.96L525.74 519.05" stroke="rgba(2, 18, 43, 1)" stroke-width="1.5"></path><path d="M854.78 204.66L854.78 204.66" stroke="rgba(2, 18, 43, 1)" stroke-width="1.5"></path><path d="M854.78 204.66L937.59 238.45" stroke="rgba(2, 18, 43, 1)" stroke-width="1.5"></path><path d="M854.78 204.66L940.1 89.72" stroke="rgba(2, 18, 43, 1)" stroke-width="1.5"></path><path d="M854.78 204.66L803.28 372.62" stroke="rgba(2, 18, 43, 1)" stroke-width="1.5"></path><path d="M803.28 372.62L803.28 372.62" stroke="rgba(2, 18, 43, 1)" stroke-width="1.5"></path><path d="M803.28 372.62L947.24 368.58" stroke="rgba(2, 18, 43, 1)" stroke-width="1.5"></path><path d="M832.6 549.94L832.6 549.94" stroke="rgba(2, 18, 43, 1)" stroke-width="1.5"></path><path d="M832.6 549.94L789.2 708.49" stroke="rgba(2, 18, 43, 1)" stroke-width="1.5"></path><path d="M832.6 549.94L955.69 669.95" stroke="rgba(2, 18, 43, 1)" stroke-width="1.5"></path><path d="M832.6 549.94L1000.35 488.46" stroke="rgba(2, 18, 43, 1)" stroke-width="1.5"></path><path d="M832.6 549.94L803.28 372.62" stroke="rgba(2, 18, 43, 1)" stroke-width="1.5"></path><path d="M789.2 708.49L789.2 708.49" stroke="rgba(2, 18, 43, 1)" stroke-width="1.5"></path><path d="M789.2 708.49L955.69 669.95" stroke="rgba(2, 18, 43, 1)" stroke-width="1.5"></path><path d="M940.49 -45.88L940.49 -45.88" stroke="rgba(2, 18, 43, 1)" stroke-width="1.5"></path><path d="M940.49 -45.88L940.1 89.72" stroke="rgba(2, 18, 43, 1)" stroke-width="1.5"></path><path d="M940.49 -45.88L1152.13 -65.9" stroke="rgba(2, 18, 43, 1)" stroke-width="1.5"></path><path d="M940.49 -45.88L1145.45 45.74" stroke="rgba(2, 18, 43, 1)" stroke-width="1.5"></path><path d="M940.1 89.72L940.1 89.72" stroke="rgba(2, 18, 43, 1)" stroke-width="1.5"></path><path d="M940.1 89.72L937.59 238.45" stroke="rgba(2, 18, 43, 1)" stroke-width="1.5"></path><path d="M940.1 89.72L1145.45 45.74" stroke="rgba(2, 18, 43, 1)" stroke-width="1.5"></path><path d="M940.1 89.72L1125.36 217" stroke="rgba(2, 18, 43, 1)" stroke-width="1.5"></path><path d="M937.59 238.45L937.59 238.45" stroke="rgba(2, 18, 43, 1)" stroke-width="1.5"></path><path d="M947.24 368.58L947.24 368.58" stroke="rgba(2, 18, 43, 1)" stroke-width="1.5"></path><path d="M947.24 368.58L937.59 238.45" stroke="rgba(2, 18, 43, 1)" stroke-width="1.5"></path><path d="M947.24 368.58L1000.35 488.46" stroke="rgba(2, 18, 43, 1)" stroke-width="1.5"></path><path d="M947.24 368.58L854.78 204.66" stroke="rgba(2, 18, 43, 1)" stroke-width="1.5"></path><path d="M947.24 368.58L1154.48 381.51" stroke="rgba(2, 18, 43, 1)" stroke-width="1.5"></path><path d="M1000.35 488.46L1000.35 488.46" stroke="rgba(2, 18, 43, 1)" stroke-width="1.5"></path><path d="M1000.35 488.46L1111.49 554.74" stroke="rgba(2, 18, 43, 1)" stroke-width="1.5"></path><path d="M1000.35 488.46L955.69 669.95" stroke="rgba(2, 18, 43, 1)" stroke-width="1.5"></path><path d="M1000.35 488.46L1154.48 381.51" stroke="rgba(2, 18, 43, 1)" stroke-width="1.5"></path><path d="M955.69 669.95L955.69 669.95" stroke="rgba(2, 18, 43, 1)" stroke-width="1.5"></path><path d="M955.69 669.95L1094.03 710.87" stroke="rgba(2, 18, 43, 1)" stroke-width="1.5"></path><path d="M1152.13 -65.9L1152.13 -65.9" stroke="rgba(2, 18, 43, 1)" stroke-width="1.5"></path><path d="M1152.13 -65.9L1145.45 45.74" stroke="rgba(2, 18, 43, 1)" stroke-width="1.5"></path><path d="M1152.13 -65.9L1305.15 -105.31" stroke="rgba(2, 18, 43, 1)" stroke-width="1.5"></path><path d="M1152.13 -65.9L1292.24 81.47" stroke="rgba(2, 18, 43, 1)" stroke-width="1.5"></path><path d="M1145.45 45.74L1145.45 45.74" stroke="rgba(2, 18, 43, 1)" stroke-width="1.5"></path><path d="M1145.45 45.74L1292.24 81.47" stroke="rgba(2, 18, 43, 1)" stroke-width="1.5"></path><path d="M1145.45 45.74L1125.36 217" stroke="rgba(2, 18, 43, 1)" stroke-width="1.5"></path><path d="M1125.36 217L1125.36 217" stroke="rgba(2, 18, 43, 1)" stroke-width="1.5"></path><path d="M1125.36 217L1243.34 258.65" stroke="rgba(2, 18, 43, 1)" stroke-width="1.5"></path><path d="M1125.36 217L1154.48 381.51" stroke="rgba(2, 18, 43, 1)" stroke-width="1.5"></path><path d="M1154.48 381.51L1154.48 381.51" stroke="rgba(2, 18, 43, 1)" stroke-width="1.5"></path><path d="M1154.48 381.51L1243.34 258.65" stroke="rgba(2, 18, 43, 1)" stroke-width="1.5"></path><path d="M1154.48 381.51L1111.49 554.74" stroke="rgba(2, 18, 43, 1)" stroke-width="1.5"></path><path d="M1111.49 554.74L1111.49 554.74" stroke="rgba(2, 18, 43, 1)" stroke-width="1.5"></path><path d="M1111.49 554.74L1094.03 710.87" stroke="rgba(2, 18, 43, 1)" stroke-width="1.5"></path><path d="M1094.03 710.87L1094.03 710.87" stroke="rgba(2, 18, 43, 1)" stroke-width="1.5"></path><path d="M1305.15 -105.31L1305.15 -105.31" stroke="rgba(2, 18, 43, 1)" stroke-width="1.5"></path><path d="M1305.15 -105.31L1406.32 -84.02" stroke="rgba(2, 18, 43, 1)" stroke-width="1.5"></path><path d="M1305.15 -105.31L1292.24 81.47" stroke="rgba(2, 18, 43, 1)" stroke-width="1.5"></path><path d="M1305.15 -105.31L1145.45 45.74" stroke="rgba(2, 18, 43, 1)" stroke-width="1.5"></path><path d="M1305.15 -105.31L1445.17 97.95" stroke="rgba(2, 18, 43, 1)" stroke-width="1.5"></path><path d="M1305.15 -105.31L1587.7 -77.77" stroke="rgba(2, 18, 43, 1)" stroke-width="1.5"></path><path d="M1292.24 81.47L1292.24 81.47" stroke="rgba(2, 18, 43, 1)" stroke-width="1.5"></path><path d="M1292.24 81.47L1445.17 97.95" stroke="rgba(2, 18, 43, 1)" stroke-width="1.5"></path><path d="M1243.34 258.65L1243.34 258.65" stroke="rgba(2, 18, 43, 1)" stroke-width="1.5"></path><path d="M1243.34 258.65L1415.41 227.46" stroke="rgba(2, 18, 43, 1)" stroke-width="1.5"></path><path d="M1243.34 258.65L1292.24 81.47" stroke="rgba(2, 18, 43, 1)" stroke-width="1.5"></path><path d="M1243.34 258.65L1433.05 380.72" stroke="rgba(2, 18, 43, 1)" stroke-width="1.5"></path><path d="M1243.34 258.65L1145.45 45.74" stroke="rgba(2, 18, 43, 1)" stroke-width="1.5"></path><path d="M1242.83 658.22L1242.83 658.22" stroke="rgba(2, 18, 43, 1)" stroke-width="1.5"></path><path d="M1242.83 658.22L1094.03 710.87" stroke="rgba(2, 18, 43, 1)" stroke-width="1.5"></path><path d="M1242.83 658.22L1111.49 554.74" stroke="rgba(2, 18, 43, 1)" stroke-width="1.5"></path><path d="M1242.83 658.22L1423.32 641.91" stroke="rgba(2, 18, 43, 1)" stroke-width="1.5"></path><path d="M1406.32 -84.02L1406.32 -84.02" stroke="rgba(2, 18, 43, 1)" stroke-width="1.5"></path><path d="M1406.32 -84.02L1587.7 -77.77" stroke="rgba(2, 18, 43, 1)" stroke-width="1.5"></path><path d="M1445.17 97.95L1445.17 97.95" stroke="rgba(2, 18, 43, 1)" stroke-width="1.5"></path><path d="M1445.17 97.95L1415.41 227.46" stroke="rgba(2, 18, 43, 1)" stroke-width="1.5"></path><path d="M1445.17 97.95L1590.56 44.93" stroke="rgba(2, 18, 43, 1)" stroke-width="1.5"></path><path d="M1445.17 97.95L1406.32 -84.02" stroke="rgba(2, 18, 43, 1)" stroke-width="1.5"></path><path d="M1415.41 227.46L1415.41 227.46" stroke="rgba(2, 18, 43, 1)" stroke-width="1.5"></path><path d="M1433.05 380.72L1433.05 380.72" stroke="rgba(2, 18, 43, 1)" stroke-width="1.5"></path><path d="M1433.05 380.72L1555.22 396.64" stroke="rgba(2, 18, 43, 1)" stroke-width="1.5"></path><path d="M1433.05 380.72L1404.34 511.09" stroke="rgba(2, 18, 43, 1)" stroke-width="1.5"></path><path d="M1433.05 380.72L1415.41 227.46" stroke="rgba(2, 18, 43, 1)" stroke-width="1.5"></path><path d="M1404.34 511.09L1404.34 511.09" stroke="rgba(2, 18, 43, 1)" stroke-width="1.5"></path><path d="M1404.34 511.09L1423.32 641.91" stroke="rgba(2, 18, 43, 1)" stroke-width="1.5"></path><path d="M1423.32 641.91L1423.32 641.91" stroke="rgba(2, 18, 43, 1)" stroke-width="1.5"></path><path d="M1423.32 641.91L1577.65 703.28" stroke="rgba(2, 18, 43, 1)" stroke-width="1.5"></path><path d="M1423.32 641.91L1573.98 527.94" stroke="rgba(2, 18, 43, 1)" stroke-width="1.5"></path><path d="M1423.32 641.91L1433.05 380.72" stroke="rgba(2, 18, 43, 1)" stroke-width="1.5"></path><path d="M1423.32 641.91L1555.22 396.64" stroke="rgba(2, 18, 43, 1)" stroke-width="1.5"></path><path d="M1587.7 -77.77L1587.7 -77.77" stroke="rgba(2, 18, 43, 1)" stroke-width="1.5"></path><path d="M1587.7 -77.77L1590.56 44.93" stroke="rgba(2, 18, 43, 1)" stroke-width="1.5"></path><path d="M1587.7 -77.77L1445.17 97.95" stroke="rgba(2, 18, 43, 1)" stroke-width="1.5"></path><path d="M1587.7 -77.77L1292.24 81.47" stroke="rgba(2, 18, 43, 1)" stroke-width="1.5"></path><path d="M1587.7 -77.77L1590.58 258.45" stroke="rgba(2, 18, 43, 1)" stroke-width="1.5"></path><path d="M1590.56 44.93L1590.56 44.93" stroke="rgba(2, 18, 43, 1)" stroke-width="1.5"></path><path d="M1590.56 44.93L1590.58 258.45" stroke="rgba(2, 18, 43, 1)" stroke-width="1.5"></path><path d="M1590.56 44.93L1406.32 -84.02" stroke="rgba(2, 18, 43, 1)" stroke-width="1.5"></path><path d="M1590.56 44.93L1415.41 227.46" stroke="rgba(2, 18, 43, 1)" stroke-width="1.5"></path><path d="M1590.56 44.93L1292.24 81.47" stroke="rgba(2, 18, 43, 1)" stroke-width="1.5"></path><path d="M1590.58 258.45L1590.58 258.45" stroke="rgba(2, 18, 43, 1)" stroke-width="1.5"></path><path d="M1590.58 258.45L1555.22 396.64" stroke="rgba(2, 18, 43, 1)" stroke-width="1.5"></path><path d="M1590.58 258.45L1415.41 227.46" stroke="rgba(2, 18, 43, 1)" stroke-width="1.5"></path><path d="M1555.22 396.64L1555.22 396.64" stroke="rgba(2, 18, 43, 1)" stroke-width="1.5"></path><path d="M1555.22 396.64L1573.98 527.94" stroke="rgba(2, 18, 43, 1)" stroke-width="1.5"></path><path d="M1573.98 527.94L1573.98 527.94" stroke="rgba(2, 18, 43, 1)" stroke-width="1.5"></path><path d="M1573.98 527.94L1404.34 511.09" stroke="rgba(2, 18, 43, 1)" stroke-width="1.5"></path><path d="M1573.98 527.94L1577.65 703.28" stroke="rgba(2, 18, 43, 1)" stroke-width="1.5"></path><path d="M1573.98 527.94L1433.05 380.72" stroke="rgba(2, 18, 43, 1)" stroke-width="1.5"></path><path d="M1577.65 703.28L1577.65 703.28" stroke="rgba(2, 18, 43, 1)" stroke-width="1.5"></path><path d="M1577.65 703.28L1404.34 511.09" stroke="rgba(2, 18, 43, 1)" stroke-width="1.5"></path><circle r="5" cx="-52.85" cy="379.87" fill="rgba(2, 18, 43, 1)"></circle><circle r="5" cx="-51.59" cy="562.18" fill="rgba(2, 18, 43, 1)"></circle><circle r="5" cx="62.89" cy="347.53" fill="rgba(2, 18, 43, 1)"></circle><circle r="5" cx="85.21" cy="503.83" fill="rgba(2, 18, 43, 1)"></circle><circle r="5" cx="107.55" cy="644.49" fill="rgba(2, 18, 43, 1)"></circle><circle r="5" cx="239.64" cy="377.59" fill="rgba(2, 18, 43, 1)"></circle><circle r="5" cx="254.15" cy="550.08" fill="rgba(2, 18, 43, 1)"></circle><circle r="5" cx="341.29" cy="393.74" fill="rgba(2, 18, 43, 1)"></circle><circle r="5" cx="410.92" cy="492.47" fill="rgba(2, 18, 43, 1)"></circle><circle r="5" cx="367.77" cy="662.19" fill="rgba(2, 18, 43, 1)"></circle><circle r="5" cx="537.63" cy="411.35" fill="rgba(2, 18, 43, 1)"></circle><circle r="5" cx="525.74" cy="519.05" fill="rgba(2, 18, 43, 1)"></circle><circle r="5" cx="551.52" cy="685.56" fill="rgba(2, 18, 43, 1)"></circle><circle r="5" cx="699.04" cy="398.98" fill="rgba(2, 18, 43, 1)"></circle><circle r="5" cx="690.21" cy="553.8" fill="rgba(2, 18, 43, 1)"></circle><circle r="5" cx="704.46" cy="688.96" fill="rgba(2, 18, 43, 1)"></circle><circle r="5" cx="854.78" cy="204.66" fill="rgba(2, 18, 43, 1)"></circle><circle r="5" cx="803.28" cy="372.62" fill="rgba(2, 18, 43, 1)"></circle><circle r="5" cx="832.6" cy="549.94" fill="rgba(2, 18, 43, 1)"></circle><circle r="5" cx="789.2" cy="708.49" fill="rgba(2, 18, 43, 1)"></circle><circle r="5" cx="940.49" cy="-45.88" fill="rgba(2, 18, 43, 1)"></circle><circle r="5" cx="940.1" cy="89.72" fill="rgba(2, 18, 43, 1)"></circle><circle r="5" cx="937.59" cy="238.45" fill="rgba(2, 18, 43, 1)"></circle><circle r="5" cx="947.24" cy="368.58" fill="rgba(2, 18, 43, 1)"></circle><circle r="5" cx="1000.35" cy="488.46" fill="rgba(2, 18, 43, 1)"></circle><circle r="5" cx="955.69" cy="669.95" fill="rgba(2, 18, 43, 1)"></circle><circle r="5" cx="1152.13" cy="-65.9" fill="rgba(2, 18, 43, 1)"></circle><circle r="5" cx="1145.45" cy="45.74" fill="rgba(2, 18, 43, 1)"></circle><circle r="5" cx="1125.36" cy="217" fill="rgba(2, 18, 43, 1)"></circle><circle r="5" cx="1154.48" cy="381.51" fill="rgba(2, 18, 43, 1)"></circle><circle r="5" cx="1111.49" cy="554.74" fill="rgba(2, 18, 43, 1)"></circle><circle r="5" cx="1094.03" cy="710.87" fill="rgba(2, 18, 43, 1)"></circle><circle r="5" cx="1305.15" cy="-105.31" fill="rgba(2, 18, 43, 1)"></circle><circle r="5" cx="1292.24" cy="81.47" fill="rgba(2, 18, 43, 1)"></circle><circle r="5" cx="1243.34" cy="258.65" fill="rgba(2, 18, 43, 1)"></circle><circle r="5" cx="1242.83" cy="658.22" fill="rgba(2, 18, 43, 1)"></circle><circle r="5" cx="1406.32" cy="-84.02" fill="rgba(2, 18, 43, 1)"></circle><circle r="5" cx="1445.17" cy="97.95" fill="rgba(2, 18, 43, 1)"></circle><circle r="5" cx="1415.41" cy="227.46" fill="rgba(2, 18, 43, 1)"></circle><circle r="5" cx="1433.05" cy="380.72" fill="rgba(2, 18, 43, 1)"></circle><circle r="5" cx="1404.34" cy="511.09" fill="rgba(2, 18, 43, 1)"></circle><circle r="5" cx="1423.32" cy="641.91" fill="rgba(2, 18, 43, 1)"></circle><circle r="5" cx="1587.7" cy="-77.77" fill="rgba(2, 18, 43, 1)"></circle><circle r="5" cx="1590.56" cy="44.93" fill="rgba(2, 18, 43, 1)"></circle><circle r="5" cx="1590.58" cy="258.45" fill="rgba(2, 18, 43, 1)"></circle><circle r="5" cx="1555.22" cy="396.64" fill="rgba(2, 18, 43, 1)"></circle><circle r="5" cx="1573.98" cy="527.94" fill="rgba(2, 18, 43, 1)"></circle><circle r="5" cx="1577.65" cy="703.28" fill="rgba(2, 18, 43, 1)"></circle><path d="M-112.2 490.56L-112.2 490.56" stroke="hsl(216.60000000000002, 91.1%, 11.5%)" stroke-width="1.5"></path><path d="M-112.2 490.56L-56.57 641.35" stroke="hsl(216.60000000000002, 91.1%, 11.5%)" stroke-width="1.5"></path><path d="M-112.2 490.56L74.72 494.7" stroke="hsl(216.60000000000002, 91.1%, 11.5%)" stroke-width="1.5"></path><path d="M74.98 687.45L74.98 687.45" stroke="hsl(216.60000000000002, 91.1%, 11.5%)" stroke-width="1.5"></path><path d="M74.98 687.45L-56.57 641.35" stroke="hsl(216.60000000000002, 91.1%, 11.5%)" stroke-width="1.5"></path><path d="M74.98 687.45L244.49 651.61" stroke="hsl(216.60000000000002, 91.1%, 11.5%)" stroke-width="1.5"></path><path d="M74.98 687.45L74.72 494.7" stroke="hsl(216.60000000000002, 91.1%, 11.5%)" stroke-width="1.5"></path><path d="M74.98 687.45L213.57 542.89" stroke="hsl(216.60000000000002, 91.1%, 11.5%)" stroke-width="1.5"></path><path d="M244.49 651.61L244.49 651.61" stroke="hsl(216.60000000000002, 91.1%, 11.5%)" stroke-width="1.5"></path><path d="M244.49 651.61L356.41 646.84" stroke="hsl(216.60000000000002, 91.1%, 11.5%)" stroke-width="1.5"></path><path d="M818.97 526.3L818.97 526.3" stroke="hsl(216.60000000000002, 91.1%, 11.5%)" stroke-width="1.5"></path><path d="M818.97 526.3L837.13 640.73" stroke="hsl(216.60000000000002, 91.1%, 11.5%)" stroke-width="1.5"></path><path d="M818.97 526.3L962.33 491.85" stroke="hsl(216.60000000000002, 91.1%, 11.5%)" stroke-width="1.5"></path><path d="M818.97 526.3L648.74 548.64" stroke="hsl(216.60000000000002, 91.1%, 11.5%)" stroke-width="1.5"></path><path d="M837.13 640.73L837.13 640.73" stroke="hsl(216.60000000000002, 91.1%, 11.5%)" stroke-width="1.5"></path><path d="M837.13 640.73L939.54 659.32" stroke="hsl(216.60000000000002, 91.1%, 11.5%)" stroke-width="1.5"></path><path d="M1161.21 188.87L1161.21 188.87" stroke="hsl(216.60000000000002, 91.1%, 11.5%)" stroke-width="1.5"></path><path d="M1161.21 188.87L1247.04 93.59" stroke="hsl(216.60000000000002, 91.1%, 11.5%)" stroke-width="1.5"></path><path d="M1161.21 188.87L1306.82 253.23" stroke="hsl(216.60000000000002, 91.1%, 11.5%)" stroke-width="1.5"></path><path d="M1161.21 188.87L1138.39 360.56" stroke="hsl(216.60000000000002, 91.1%, 11.5%)" stroke-width="1.5"></path><path d="M1161.21 188.87L1282.71 368.2" stroke="hsl(216.60000000000002, 91.1%, 11.5%)" stroke-width="1.5"></path><path d="M1161.21 188.87L1395.37 239.2" stroke="hsl(216.60000000000002, 91.1%, 11.5%)" stroke-width="1.5"></path><path d="M1161.21 188.87L1152.75 -73.5" stroke="hsl(216.60000000000002, 91.1%, 11.5%)" stroke-width="1.5"></path><path d="M1123.54 676.13L1123.54 676.13" stroke="hsl(216.60000000000002, 91.1%, 11.5%)" stroke-width="1.5"></path><path d="M1123.54 676.13L1150.49 532.2" stroke="hsl(216.60000000000002, 91.1%, 11.5%)" stroke-width="1.5"></path><path d="M1123.54 676.13L1285.48 661.55" stroke="hsl(216.60000000000002, 91.1%, 11.5%)" stroke-width="1.5"></path><path d="M1123.54 676.13L939.54 659.32" stroke="hsl(216.60000000000002, 91.1%, 11.5%)" stroke-width="1.5"></path><path d="M1303.42 559.03L1303.42 559.03" stroke="hsl(216.60000000000002, 91.1%, 11.5%)" stroke-width="1.5"></path><path d="M1303.42 559.03L1285.48 661.55" stroke="hsl(216.60000000000002, 91.1%, 11.5%)" stroke-width="1.5"></path><path d="M1303.42 559.03L1398.18 501.5" stroke="hsl(216.60000000000002, 91.1%, 11.5%)" stroke-width="1.5"></path><path d="M1303.42 559.03L1392.32 674.81" stroke="hsl(216.60000000000002, 91.1%, 11.5%)" stroke-width="1.5"></path><path d="M1303.42 559.03L1150.49 532.2" stroke="hsl(216.60000000000002, 91.1%, 11.5%)" stroke-width="1.5"></path><path d="M1303.42 559.03L1282.71 368.2" stroke="hsl(216.60000000000002, 91.1%, 11.5%)" stroke-width="1.5"></path><path d="M1439.8 -99.75L1439.8 -99.75" stroke="hsl(216.60000000000002, 91.1%, 11.5%)" stroke-width="1.5"></path><path d="M1439.8 -99.75L1543.36 -58.9" stroke="hsl(216.60000000000002, 91.1%, 11.5%)" stroke-width="1.5"></path><path d="M1439.8 -99.75L1292.71 -109.07" stroke="hsl(216.60000000000002, 91.1%, 11.5%)" stroke-width="1.5"></path><path d="M1439.8 -99.75L1426.2 69.7" stroke="hsl(216.60000000000002, 91.1%, 11.5%)" stroke-width="1.5"></path><path d="M1439.8 -99.75L1540.6 91.73" stroke="hsl(216.60000000000002, 91.1%, 11.5%)" stroke-width="1.5"></path><path d="M1439.8 -99.75L1247.04 93.59" stroke="hsl(216.60000000000002, 91.1%, 11.5%)" stroke-width="1.5"></path><path d="M1398.18 501.5L1398.18 501.5" stroke="hsl(216.60000000000002, 91.1%, 11.5%)" stroke-width="1.5"></path><path d="M1398.18 501.5L1407.88 391.37" stroke="hsl(216.60000000000002, 91.1%, 11.5%)" stroke-width="1.5"></path><path d="M1398.18 501.5L1392.32 674.81" stroke="hsl(216.60000000000002, 91.1%, 11.5%)" stroke-width="1.5"></path><path d="M1398.18 501.5L1282.71 368.2" stroke="hsl(216.60000000000002, 91.1%, 11.5%)" stroke-width="1.5"></path><path d="M1398.18 501.5L1285.48 661.55" stroke="hsl(216.60000000000002, 91.1%, 11.5%)" stroke-width="1.5"></path><path d="M-56.57 641.35L-56.57 641.35" stroke="hsl(216.60000000000002, 91.1%, 11.5%)" stroke-width="1.5"></path><path d="M-56.57 641.35L74.72 494.7" stroke="hsl(216.60000000000002, 91.1%, 11.5%)" stroke-width="1.5"></path><path d="M-56.57 641.35L213.57 542.89" stroke="hsl(216.60000000000002, 91.1%, 11.5%)" stroke-width="1.5"></path><path d="M-56.57 641.35L244.49 651.61" stroke="hsl(216.60000000000002, 91.1%, 11.5%)" stroke-width="1.5"></path><path d="M74.72 494.7L74.72 494.7" stroke="hsl(216.60000000000002, 91.1%, 11.5%)" stroke-width="1.5"></path><path d="M74.72 494.7L213.57 542.89" stroke="hsl(216.60000000000002, 91.1%, 11.5%)" stroke-width="1.5"></path><path d="M213.57 542.89L213.57 542.89" stroke="hsl(216.60000000000002, 91.1%, 11.5%)" stroke-width="1.5"></path><path d="M213.57 542.89L244.49 651.61" stroke="hsl(216.60000000000002, 91.1%, 11.5%)" stroke-width="1.5"></path><path d="M213.57 542.89L356.41 646.84" stroke="hsl(216.60000000000002, 91.1%, 11.5%)" stroke-width="1.5"></path><path d="M213.57 542.89L396.61 507.01" stroke="hsl(216.60000000000002, 91.1%, 11.5%)" stroke-width="1.5"></path><path d="M396.61 507.01L396.61 507.01" stroke="hsl(216.60000000000002, 91.1%, 11.5%)" stroke-width="1.5"></path><path d="M396.61 507.01L541.59 512.75" stroke="hsl(216.60000000000002, 91.1%, 11.5%)" stroke-width="1.5"></path><path d="M396.61 507.01L356.41 646.84" stroke="hsl(216.60000000000002, 91.1%, 11.5%)" stroke-width="1.5"></path><path d="M396.61 507.01L244.49 651.61" stroke="hsl(216.60000000000002, 91.1%, 11.5%)" stroke-width="1.5"></path><path d="M396.61 507.01L520.72 701.18" stroke="hsl(216.60000000000002, 91.1%, 11.5%)" stroke-width="1.5"></path><path d="M356.41 646.84L356.41 646.84" stroke="hsl(216.60000000000002, 91.1%, 11.5%)" stroke-width="1.5"></path><path d="M356.41 646.84L520.72 701.18" stroke="hsl(216.60000000000002, 91.1%, 11.5%)" stroke-width="1.5"></path><path d="M356.41 646.84L541.59 512.75" stroke="hsl(216.60000000000002, 91.1%, 11.5%)" stroke-width="1.5"></path><path d="M356.41 646.84L74.98 687.45" stroke="hsl(216.60000000000002, 91.1%, 11.5%)" stroke-width="1.5"></path><path d="M541.59 512.75L541.59 512.75" stroke="hsl(216.60000000000002, 91.1%, 11.5%)" stroke-width="1.5"></path><path d="M541.59 512.75L648.74 548.64" stroke="hsl(216.60000000000002, 91.1%, 11.5%)" stroke-width="1.5"></path><path d="M520.72 701.18L520.72 701.18" stroke="hsl(216.60000000000002, 91.1%, 11.5%)" stroke-width="1.5"></path><path d="M520.72 701.18L675.3 638.6" stroke="hsl(216.60000000000002, 91.1%, 11.5%)" stroke-width="1.5"></path><path d="M520.72 701.18L541.59 512.75" stroke="hsl(216.60000000000002, 91.1%, 11.5%)" stroke-width="1.5"></path><path d="M690.67 363.82L690.67 363.82" stroke="hsl(216.60000000000002, 91.1%, 11.5%)" stroke-width="1.5"></path><path d="M690.67 363.82L648.74 548.64" stroke="hsl(216.60000000000002, 91.1%, 11.5%)" stroke-width="1.5"></path><path d="M690.67 363.82L818.97 526.3" stroke="hsl(216.60000000000002, 91.1%, 11.5%)" stroke-width="1.5"></path><path d="M690.67 363.82L541.59 512.75" stroke="hsl(216.60000000000002, 91.1%, 11.5%)" stroke-width="1.5"></path><path d="M648.74 548.64L648.74 548.64" stroke="hsl(216.60000000000002, 91.1%, 11.5%)" stroke-width="1.5"></path><path d="M648.74 548.64L675.3 638.6" stroke="hsl(216.60000000000002, 91.1%, 11.5%)" stroke-width="1.5"></path><path d="M675.3 638.6L675.3 638.6" stroke="hsl(216.60000000000002, 91.1%, 11.5%)" stroke-width="1.5"></path><path d="M979.28 391.38L979.28 391.38" stroke="hsl(216.60000000000002, 91.1%, 11.5%)" stroke-width="1.5"></path><path d="M979.28 391.38L962.33 491.85" stroke="hsl(216.60000000000002, 91.1%, 11.5%)" stroke-width="1.5"></path><path d="M979.28 391.38L1138.39 360.56" stroke="hsl(216.60000000000002, 91.1%, 11.5%)" stroke-width="1.5"></path><path d="M979.28 391.38L818.97 526.3" stroke="hsl(216.60000000000002, 91.1%, 11.5%)" stroke-width="1.5"></path><path d="M962.33 491.85L962.33 491.85" stroke="hsl(216.60000000000002, 91.1%, 11.5%)" stroke-width="1.5"></path><path d="M962.33 491.85L939.54 659.32" stroke="hsl(216.60000000000002, 91.1%, 11.5%)" stroke-width="1.5"></path><path d="M962.33 491.85L1150.49 532.2" stroke="hsl(216.60000000000002, 91.1%, 11.5%)" stroke-width="1.5"></path><path d="M962.33 491.85L837.13 640.73" stroke="hsl(216.60000000000002, 91.1%, 11.5%)" stroke-width="1.5"></path><path d="M962.33 491.85L1138.39 360.56" stroke="hsl(216.60000000000002, 91.1%, 11.5%)" stroke-width="1.5"></path><path d="M939.54 659.32L939.54 659.32" stroke="hsl(216.60000000000002, 91.1%, 11.5%)" stroke-width="1.5"></path><path d="M939.54 659.32L818.97 526.3" stroke="hsl(216.60000000000002, 91.1%, 11.5%)" stroke-width="1.5"></path><path d="M1152.75 -73.5L1152.75 -73.5" stroke="hsl(216.60000000000002, 91.1%, 11.5%)" stroke-width="1.5"></path><path d="M1152.75 -73.5L1292.71 -109.07" stroke="hsl(216.60000000000002, 91.1%, 11.5%)" stroke-width="1.5"></path><path d="M1152.75 -73.5L1247.04 93.59" stroke="hsl(216.60000000000002, 91.1%, 11.5%)" stroke-width="1.5"></path><path d="M1152.75 -73.5L1439.8 -99.75" stroke="hsl(216.60000000000002, 91.1%, 11.5%)" stroke-width="1.5"></path><path d="M1138.39 360.56L1138.39 360.56" stroke="hsl(216.60000000000002, 91.1%, 11.5%)" stroke-width="1.5"></path><path d="M1138.39 360.56L1282.71 368.2" stroke="hsl(216.60000000000002, 91.1%, 11.5%)" stroke-width="1.5"></path><path d="M1138.39 360.56L1150.49 532.2" stroke="hsl(216.60000000000002, 91.1%, 11.5%)" stroke-width="1.5"></path><path d="M1138.39 360.56L1306.82 253.23" stroke="hsl(216.60000000000002, 91.1%, 11.5%)" stroke-width="1.5"></path><path d="M1150.49 532.2L1150.49 532.2" stroke="hsl(216.60000000000002, 91.1%, 11.5%)" stroke-width="1.5"></path><path d="M1292.71 -109.07L1292.71 -109.07" stroke="hsl(216.60000000000002, 91.1%, 11.5%)" stroke-width="1.5"></path><path d="M1292.71 -109.07L1247.04 93.59" stroke="hsl(216.60000000000002, 91.1%, 11.5%)" stroke-width="1.5"></path><path d="M1292.71 -109.07L1426.2 69.7" stroke="hsl(216.60000000000002, 91.1%, 11.5%)" stroke-width="1.5"></path><path d="M1292.71 -109.07L1543.36 -58.9" stroke="hsl(216.60000000000002, 91.1%, 11.5%)" stroke-width="1.5"></path><path d="M1247.04 93.59L1247.04 93.59" stroke="hsl(216.60000000000002, 91.1%, 11.5%)" stroke-width="1.5"></path><path d="M1247.04 93.59L1306.82 253.23" stroke="hsl(216.60000000000002, 91.1%, 11.5%)" stroke-width="1.5"></path><path d="M1247.04 93.59L1426.2 69.7" stroke="hsl(216.60000000000002, 91.1%, 11.5%)" stroke-width="1.5"></path><path d="M1306.82 253.23L1306.82 253.23" stroke="hsl(216.60000000000002, 91.1%, 11.5%)" stroke-width="1.5"></path><path d="M1306.82 253.23L1395.37 239.2" stroke="hsl(216.60000000000002, 91.1%, 11.5%)" stroke-width="1.5"></path><path d="M1306.82 253.23L1282.71 368.2" stroke="hsl(216.60000000000002, 91.1%, 11.5%)" stroke-width="1.5"></path><path d="M1282.71 368.2L1282.71 368.2" stroke="hsl(216.60000000000002, 91.1%, 11.5%)" stroke-width="1.5"></path><path d="M1282.71 368.2L1407.88 391.37" stroke="hsl(216.60000000000002, 91.1%, 11.5%)" stroke-width="1.5"></path><path d="M1285.48 661.55L1285.48 661.55" stroke="hsl(216.60000000000002, 91.1%, 11.5%)" stroke-width="1.5"></path><path d="M1285.48 661.55L1392.32 674.81" stroke="hsl(216.60000000000002, 91.1%, 11.5%)" stroke-width="1.5"></path><path d="M1426.2 69.7L1426.2 69.7" stroke="hsl(216.60000000000002, 91.1%, 11.5%)" stroke-width="1.5"></path><path d="M1426.2 69.7L1540.6 91.73" stroke="hsl(216.60000000000002, 91.1%, 11.5%)" stroke-width="1.5"></path><path d="M1426.2 69.7L1395.37 239.2" stroke="hsl(216.60000000000002, 91.1%, 11.5%)" stroke-width="1.5"></path><path d="M1426.2 69.7L1543.36 -58.9" stroke="hsl(216.60000000000002, 91.1%, 11.5%)" stroke-width="1.5"></path><path d="M1395.37 239.2L1395.37 239.2" stroke="hsl(216.60000000000002, 91.1%, 11.5%)" stroke-width="1.5"></path><path d="M1395.37 239.2L1407.88 391.37" stroke="hsl(216.60000000000002, 91.1%, 11.5%)" stroke-width="1.5"></path><path d="M1407.88 391.37L1407.88 391.37" stroke="hsl(216.60000000000002, 91.1%, 11.5%)" stroke-width="1.5"></path><path d="M1407.88 391.37L1306.82 253.23" stroke="hsl(216.60000000000002, 91.1%, 11.5%)" stroke-width="1.5"></path><path d="M1392.32 674.81L1392.32 674.81" stroke="hsl(216.60000000000002, 91.1%, 11.5%)" stroke-width="1.5"></path><path d="M1392.32 674.81L1604.71 510.55" stroke="hsl(216.60000000000002, 91.1%, 11.5%)" stroke-width="1.5"></path><path d="M1392.32 674.81L1123.54 676.13" stroke="hsl(216.60000000000002, 91.1%, 11.5%)" stroke-width="1.5"></path><path d="M1392.32 674.81L1150.49 532.2" stroke="hsl(216.60000000000002, 91.1%, 11.5%)" stroke-width="1.5"></path><path d="M1543.36 -58.9L1543.36 -58.9" stroke="hsl(216.60000000000002, 91.1%, 11.5%)" stroke-width="1.5"></path><path d="M1543.36 -58.9L1540.6 91.73" stroke="hsl(216.60000000000002, 91.1%, 11.5%)" stroke-width="1.5"></path><path d="M1543.36 -58.9L1588.23 200.84" stroke="hsl(216.60000000000002, 91.1%, 11.5%)" stroke-width="1.5"></path><path d="M1540.6 91.73L1540.6 91.73" stroke="hsl(216.60000000000002, 91.1%, 11.5%)" stroke-width="1.5"></path><path d="M1540.6 91.73L1588.23 200.84" stroke="hsl(216.60000000000002, 91.1%, 11.5%)" stroke-width="1.5"></path><path d="M1540.6 91.73L1395.37 239.2" stroke="hsl(216.60000000000002, 91.1%, 11.5%)" stroke-width="1.5"></path><path d="M1588.23 200.84L1588.23 200.84" stroke="hsl(216.60000000000002, 91.1%, 11.5%)" stroke-width="1.5"></path><path d="M1588.23 200.84L1589.64 350.37" stroke="hsl(216.60000000000002, 91.1%, 11.5%)" stroke-width="1.5"></path><path d="M1588.23 200.84L1395.37 239.2" stroke="hsl(216.60000000000002, 91.1%, 11.5%)" stroke-width="1.5"></path><path d="M1588.23 200.84L1426.2 69.7" stroke="hsl(216.60000000000002, 91.1%, 11.5%)" stroke-width="1.5"></path><path d="M1588.23 200.84L1407.88 391.37" stroke="hsl(216.60000000000002, 91.1%, 11.5%)" stroke-width="1.5"></path><path d="M1589.64 350.37L1589.64 350.37" stroke="hsl(216.60000000000002, 91.1%, 11.5%)" stroke-width="1.5"></path><path d="M1589.64 350.37L1604.71 510.55" stroke="hsl(216.60000000000002, 91.1%, 11.5%)" stroke-width="1.5"></path><path d="M1589.64 350.37L1407.88 391.37" stroke="hsl(216.60000000000002, 91.1%, 11.5%)" stroke-width="1.5"></path><path d="M1589.64 350.37L1395.37 239.2" stroke="hsl(216.60000000000002, 91.1%, 11.5%)" stroke-width="1.5"></path><path d="M1604.71 510.55L1604.71 510.55" stroke="hsl(216.60000000000002, 91.1%, 11.5%)" stroke-width="1.5"></path><path d="M1604.71 510.55L1398.18 501.5" stroke="hsl(216.60000000000002, 91.1%, 11.5%)" stroke-width="1.5"></path><path d="M1604.71 510.55L1407.88 391.37" stroke="hsl(216.60000000000002, 91.1%, 11.5%)" stroke-width="1.5"></path><path d="M1604.71 510.55L1303.42 559.03" stroke="hsl(216.60000000000002, 91.1%, 11.5%)" stroke-width="1.5"></path><circle r="25" cx="-112.2" cy="490.56" fill="url(&quot;#SvgjsRadialGradient2476&quot;)"></circle><circle r="25" cx="74.98" cy="687.45" fill="url(&quot;#SvgjsRadialGradient2476&quot;)"></circle><circle r="25" cx="244.49" cy="651.61" fill="url(&quot;#SvgjsRadialGradient2476&quot;)"></circle><circle r="25" cx="818.97" cy="526.3" fill="url(&quot;#SvgjsRadialGradient2476&quot;)"></circle><circle r="25" cx="837.13" cy="640.73" fill="url(&quot;#SvgjsRadialGradient2476&quot;)"></circle><circle r="25" cx="1161.21" cy="188.87" fill="url(&quot;#SvgjsRadialGradient2476&quot;)"></circle><circle r="25" cx="1123.54" cy="676.13" fill="url(&quot;#SvgjsRadialGradient2476&quot;)"></circle><circle r="25" cx="1303.42" cy="559.03" fill="url(&quot;#SvgjsRadialGradient2476&quot;)"></circle><circle r="25" cx="1439.8" cy="-99.75" fill="url(&quot;#SvgjsRadialGradient2476&quot;)"></circle><circle r="25" cx="1398.18" cy="501.5" fill="url(&quot;#SvgjsRadialGradient2476&quot;)"></circle><circle r="5" cx="-56.57" cy="641.35" fill="#818995"></circle><circle r="5" cx="74.72" cy="494.7" fill="#818995"></circle><circle r="5" cx="213.57" cy="542.89" fill="#818995"></circle><circle r="5" cx="396.61" cy="507.01" fill="#818995"></circle><circle r="5" cx="356.41" cy="646.84" fill="#818995"></circle><circle r="5" cx="541.59" cy="512.75" fill="#818995"></circle><circle r="5" cx="520.72" cy="701.18" fill="#818995"></circle><circle r="5" cx="690.67" cy="363.82" fill="#818995"></circle><circle r="5" cx="648.74" cy="548.64" fill="#818995"></circle><circle r="5" cx="675.3" cy="638.6" fill="#818995"></circle><circle r="5" cx="979.28" cy="391.38" fill="#818995"></circle><circle r="5" cx="962.33" cy="491.85" fill="#818995"></circle><circle r="5" cx="939.54" cy="659.32" fill="#818995"></circle><circle r="5" cx="1152.75" cy="-73.5" fill="#818995"></circle><circle r="5" cx="1138.39" cy="360.56" fill="#818995"></circle><circle r="5" cx="1150.49" cy="532.2" fill="#818995"></circle><circle r="5" cx="1292.71" cy="-109.07" fill="#818995"></circle><circle r="5" cx="1247.04" cy="93.59" fill="#818995"></circle><circle r="5" cx="1306.82" cy="253.23" fill="#818995"></circle><circle r="5" cx="1282.71" cy="368.2" fill="#818995"></circle><circle r="5" cx="1285.48" cy="661.55" fill="#818995"></circle><circle r="5" cx="1426.2" cy="69.7" fill="#818995"></circle><circle r="5" cx="1395.37" cy="239.2" fill="#818995"></circle><circle r="5" cx="1407.88" cy="391.37" fill="#818995"></circle><circle r="5" cx="1392.32" cy="674.81" fill="#818995"></circle><circle r="5" cx="1543.36" cy="-58.9" fill="#818995"></circle><circle r="5" cx="1540.6" cy="91.73" fill="#818995"></circle><circle r="5" cx="1588.23" cy="200.84" fill="#818995"></circle><circle r="5" cx="1589.64" cy="350.37" fill="#818995"></circle><circle r="5" cx="1604.71" cy="510.55" fill="#818995"></circle></g><defs><mask id="SvgjsMask2475"><rect width="1440" height="560" fill="#ffffff"></rect></mask><radialGradient id="SvgjsRadialGradient2476"><stop stop-color="#ffffff" offset="0.1"></stop><stop stop-color="rgba(2, 18, 43, 1)" offset="0.2"></stop><stop stop-color="rgba(2, 18, 43, 0)" offset="1"></stop></radialGradient></defs></svg>